<?xml version="1.0" encoding="utf-8"?>
<!-- Generator: Adobe Illustrator 19.1.0, SVG Export Plug-In . SVG Version: 6.00 Build 0)  -->
<!DOCTYPE svg PUBLIC "-//W3C//DTD SVG 1.1//EN" "http://www.w3.org/Graphics/SVG/1.1/DTD/svg11.dtd">
<svg version="1.1" id="Layer_1" xmlns="http://www.w3.org/2000/svg" xmlns:xlink="http://www.w3.org/1999/xlink" x="0px" y="0px"
	 width="791px" height="635px" viewBox="0 0 791 635" enable-background="new 0 0 791 635" xml:space="preserve">
<g>
	<rect x="682" y="541" fill="#FFFFFF" width="56" height="40"/>
	<rect x="682" y="568" fill="#FF0000" width="56" height="13"/>
	<rect x="682" y="541" fill="#39953E" width="56" height="13"/>
	<path fill="#3E3E3E" d="M682,541l16,13v14l-16,13V541z"/>
</g>
<g>
	<rect x="592" y="541" fill="#FFFFFF" width="56" height="40"/>
	<rect x="592" y="568" fill="#39953E" width="56" height="13"/>
	<rect x="592" y="541" fill="#3E3E3E" width="56" height="13"/>
	<path fill="#FF0000" d="M592,541l24,20l-24,20V541z"/>
	<circle fill="#FFFFFF" cx="601" cy="561" r="3"/>
</g>
<g>
	<rect x="502" y="541" fill="#FFFFFF" width="56" height="40"/>
	<circle fill="#FF0000" cx="530" cy="561" r="12"/>
</g>
<g>
	<rect x="412" y="541" fill="#39953E" width="56" height="40"/>
	<path fill="#3E3E3E" d="M412,541l24,20l-24,20V541z"/>
	<path fill="#3E3E3E" d="M468,541l-24,20l24,20V541z"/>
	<path fill="#FFD200" d="M468,581h-5l-23-15.8L417,581h-5v-5l21.9-15L412,546v-5h5l23,15.8l23-15.8h5v5l-21.9,15l21.9,15V581z"/>
</g>
<g>
	<rect x="322" y="541" fill="#FFFFFF" width="56" height="40"/>
	<rect x="322" y="541" fill="#39953E" width="18" height="40"/>
	<rect x="360" y="541" fill="#FF0000" width="18" height="40"/>
</g>
<g>
	<rect x="232" y="541" fill="#FFFFFF" width="56" height="40"/>
	<rect x="232" y="573" fill="#3B6AC3" width="56" height="8"/>
	<rect x="232" y="541" fill="#3B6AC3" width="56" height="8"/>
	<path fill="#3B6AC3" d="M260,570c-5,0-9-4-9-9s4-9,9-9c5,0,9,4,9,9S265,570,260,570z M260,555c-3.3,0-6,2.7-6,6c0,3.3,2.7,6,6,6
		s6-2.7,6-6C266,557.7,263.3,555,260,555z"/>
</g>
<g>
	<rect x="142" y="541" fill="#FFFFFF" width="56" height="40"/>
	<rect x="142" y="541" fill="#FF0000" width="56" height="13"/>
	<rect x="142" y="568" fill="#3E3E3E" width="56" height="13"/>
	<rect x="162" y="559" fill="#39953E" width="17" height="4"/>
</g>
<g>
	<rect x="52" y="541" fill="#FFFFFF" width="56" height="40"/>
	<rect x="52" y="541" fill="#39953E" width="56" height="13"/>
	<rect x="52" y="568" fill="#FF0000" width="56" height="13"/>
	<circle fill="#39953E" cx="80" cy="561" r="5"/>
</g>
<g>
	<rect x="682" y="471" fill="#FFFFFF" width="56" height="40"/>
	<rect x="682" y="471" fill="#FF0000" width="56" height="20"/>
</g>
<g>
	<rect x="592" y="471" fill="#FFFFFF" width="56" height="40"/>
	<rect x="592" y="471" fill="#FF9C00" width="56" height="13"/>
	<rect x="592" y="498" fill="#39953E" width="56" height="13"/>
	<circle fill="#001468" cx="620" cy="491" r="5"/>
</g>
<g>
	<rect x="502" y="471" fill="#3B6AC3" width="56" height="40"/>
	<path fill="#FFFFFF" d="M558,495h-32v16h-8v-16h-16v-8h16v-16h8v16h32V495z"/>
	<path fill="#FF0000" d="M558,493h-34v18h-4v-18h-18v-4h18v-18h4v18h34V493z"/>
</g>
<g>
	<rect x="412" y="471" fill="#FFFFFF" width="56" height="40"/>
	<rect x="412" y="498" fill="#39953E" width="56" height="13"/>
	<rect x="412" y="471" fill="#FF0000" width="56" height="13"/>
</g>
<g>
	<rect x="322" y="471" fill="#FFFFFF" width="56" height="40"/>
	<rect x="322" y="498" fill="#3B6AC3" width="56" height="13"/>
	<rect x="322" y="471" fill="#3B6AC3" width="56" height="13"/>
	<path fill="#3B6AC3" d="M355,490c-1.1,0-2-0.9-2-2s0.9-2,2-2s2,0.9,2,2S356.1,490,355,490z M350,493c-1.1,0-2-0.9-2-2s0.9-2,2-2
		s2,0.9,2,2S351.1,493,350,493z M345,496c-1.1,0-2-0.9-2-2s0.9-2,2-2s2,0.9,2,2S346.1,496,345,496z M345,490c-1.1,0-2-0.9-2-2
		s0.9-2,2-2s2,0.9,2,2S346.1,490,345,490z M355,492c1.1,0,2,0.9,2,2s-0.9,2-2,2s-2-0.9-2-2S353.9,492,355,492z"/>
</g>
<g>
	<rect x="232" y="471" fill="#FFFFFF" width="56" height="40"/>
	<rect x="232" y="471" fill="#FF0000" width="56" height="13"/>
	<rect x="232" y="497" fill="#3B6AC3" width="56" height="14"/>
</g>
<g>
	<rect x="142" y="471" fill="#001468" width="56" height="40"/>
	<rect x="142" y="491" fill="#FF0000" width="56" height="20"/>
</g>
<g>
	<rect x="52" y="471" fill="#39953E" width="56" height="40"/>
	<path fill="#FFD200" d="M52,471l56,20l-56,20V471z"/>
	<path fill="#3E3E3E" d="M52,471l24,20l-24,20V471z"/>
	<path fill="#FF0000" d="M52,474l20,17l-20,17V474z"/>
</g>
<g>
	<rect x="682" y="401" fill="#FFD200" width="56" height="40"/>
	<rect x="682" y="421" fill="#FF0000" width="56" height="20"/>
	<rect x="682" y="401" fill="#39953E" width="18" height="40"/>
	<circle fill="#3E3E3E" cx="691" cy="421" r="4"/>
</g>
<g>
	<rect x="592" y="401" fill="#FFD200" width="56" height="40"/>
	<rect x="592" y="428" fill="#39953E" width="56" height="13"/>
	<rect x="592" y="401" fill="#FF0000" width="56" height="13"/>
	<circle fill="#3E3E3E" cx="620" cy="421" r="5"/>
</g>
<g>
	<rect x="502" y="401" fill="#FF0000" width="56" height="40"/>
	<rect x="502" y="428" fill="#FFD200" width="56" height="13"/>
	<rect x="502" y="401" fill="#3E3E3E" width="56" height="13"/>
</g>
<g>
	<rect x="412" y="401" fill="#FFFFFF" width="56" height="40"/>
	<rect x="412" y="401" fill="#3B6AC3" width="18" height="40"/>
	<rect x="450" y="401" fill="#FF0000" width="18" height="40"/>
</g>
<g>
	<rect x="322" y="401" fill="#FFFFFF" width="56" height="40"/>
	<path fill="#3B6AC3" d="M378,425h-32v16h-8v-16h-16v-8h16v-16h8v16h32V425z"/>
</g>
<g>
	<rect x="232" y="401" fill="#FFD200" width="56" height="40"/>
	<rect x="232" y="428" fill="#FF0000" width="56" height="13"/>
	<rect x="232" y="401" fill="#39953E" width="56" height="13"/>
	<circle fill="#3B6AC3" cx="260" cy="421" r="9"/>
</g>
<g>
	<rect x="142" y="401" fill="#3E3E3E" width="56" height="40"/>
	<rect x="142" y="428" fill="#FFFFFF" width="56" height="13"/>
	<rect x="142" y="401" fill="#3B6AC3" width="56" height="13"/>
</g>
<g>
	<rect x="52" y="401" fill="#39953E" width="56" height="40"/>
	<rect x="52" y="421" fill="#7EC8EB" width="56" height="20"/>
	<path fill="#FF0000" d="M52,401l56,20l-56,20V401z"/>
	<path fill="#FFD200" d="M67,430c-5,0-9-4-9-9c0-5,4-9,9-9c5,0,9,4,9,9C76,426,72,430,67,430z M67,415c-3.3,0-6,2.7-6,6s2.7,6,6,6
		c3.3,0,6-2.7,6-6S70.3,415,67,415z"/>
</g>
<g>
	<rect x="682" y="331" fill="#FFFFFF" width="56" height="40"/>
	<path fill="#FF0000" d="M738,355h-24v16h-8v-16h-24v-8h24v-16h8v16h24V355z"/>
</g>
<g>
	<rect x="592" y="331" fill="#FFFFFF" width="56" height="40"/>
	<rect x="592" y="331" fill="#3B6AC3" width="56" height="13"/>
	<rect x="592" y="358" fill="#3B6AC3" width="56" height="13"/>
	<circle fill="#7EC8EB" cx="620" cy="351" r="5"/>
</g>
<g>
	<rect x="502" y="331" fill="#FFFFFF" width="56" height="40"/>
	<rect x="540" y="331" fill="#FF9C00" width="18" height="40"/>
	<rect x="502" y="331" fill="#39953E" width="18" height="40"/>
</g>
<g>
	<rect x="412" y="331" fill="#FFFFFF" width="56" height="40"/>
	<rect x="412" y="358" fill="#3E3E3E" width="56" height="13"/>
	<rect x="412" y="331" fill="#FF0000" width="56" height="13"/>
	<path fill="#FFD200" d="M440,356c-2.2,0-4-1.8-4-4.1v-5.3c0,0,2-0.6,3.9-0.6c2,0,4.1,0.6,4.1,0.6v5.3C444,354.2,442.2,356,440,356z
		"/>
</g>
<g>
	<rect x="322" y="331" fill="#FFD200" width="56" height="40"/>
	<rect x="322" y="360" fill="#FF0000" width="56" height="11"/>
	<rect x="322" y="349" fill="#3B6AC3" width="56" height="11"/>
	<path fill="#FF9C00" d="M350,358c-3.9,0-7-3.1-7-7v-9c0,0,3.4-1,6.9-1c3.5,0,7.1,1,7.1,1v9C357,354.9,353.9,358,350,358z"/>
</g>
<g>
	<rect x="232" y="331" fill="#FF0000" width="56" height="40"/>
	<path fill="#FF9C00" d="M232,331l33,20l-33,20V331z"/>
	<path fill="#3E3E3E" d="M232,331l24,20l-24,20V331z"/>
	<circle fill="#FFFFFF" cx="241" cy="351" r="3"/>
</g>
<g>
	<rect x="142" y="331" fill="#FF0000" width="56" height="40"/>
	<rect x="170" y="351" fill="#001468" width="28" height="20"/>
	<rect x="142" y="331" fill="#001468" width="28" height="20"/>
	<path fill="#FFFFFF" d="M198,355h-24v16h-8v-16h-24v-8h24v-16h8v16h24V355z"/>
</g>
<g>
	<rect x="52" y="331" fill="#3B6AC3" width="56" height="40"/>
	<rect x="52" y="351" fill="#39953E" width="56" height="20"/>
	<path fill="#FFFFFF" d="M52,331l24,20l-24,20V331z"/>
	<circle fill="#FF0000" cx="61" cy="351" r="3"/>
</g>
<g>
	<rect x="682" y="261" fill="#FF0000" width="56" height="40"/>
	<path fill="#FFFFFF" d="M738,285h-32v16h-8v-16h-16v-8h16v-16h8v16h32V285z"/>
</g>
<g>
	<rect x="592" y="261" fill="#FFFFFF" width="56" height="40"/>
	<rect x="592" y="281" fill="#FF0000" width="56" height="20"/>
	<path fill="#001468" d="M592,261l24,20l-24,20V261z"/>
</g>
<g>
	<rect x="502" y="261" fill="#FFFFFF" width="56" height="40"/>
	<rect x="502" y="293" fill="#3B6AC3" width="56" height="8"/>
	<rect x="502" y="277" fill="#3B6AC3" width="56" height="8"/>
	<rect x="502" y="261" fill="#3B6AC3" width="56" height="8"/>
	<path fill="#FF0000" d="M502,261l24,20l-24,20V261z"/>
	<circle fill="#FFFFFF" cx="511" cy="281" r="3"/>
</g>
<g>
	<rect x="412" y="261" fill="#FFFFFF" width="56" height="40"/>
	<rect x="412" y="261" fill="#FF9C00" width="18" height="40"/>
	<rect x="450" y="261" fill="#39953E" width="18" height="40"/>
</g>
<g>
	<rect x="322" y="261" fill="#FFFFFF" width="56" height="40"/>
	<rect x="322" y="295" fill="#3B6AC3" width="56" height="6"/>
	<rect x="322" y="273" fill="#FF0000" width="56" height="16"/>
	<rect x="322" y="261" fill="#3B6AC3" width="56" height="6"/>
</g>
<g>
	<rect x="232" y="261" fill="#FFD200" width="56" height="40"/>
	<rect x="232" y="290" fill="#FF0000" width="56" height="11"/>
	<rect x="232" y="279" fill="#3B6AC3" width="56" height="11"/>
</g>
<g>
	<rect x="142" y="261" fill="#FF0000" width="56" height="40"/>
	<path fill="#FFD200" d="M166,275c-1.1,0-2-0.9-2-2s0.9-2,2-2s2,0.9,2,2S167.1,275,166,275z M163,270c-1.1,0-2-0.9-2-2s0.9-2,2-2
		s2,0.9,2,2S164.1,270,163,270z M163,282c1.1,0,2,0.9,2,2s-0.9,2-2,2s-2-0.9-2-2S161.9,282,163,282z M164,279c0-1.1,0.9-2,2-2
		s2,0.9,2,2s-0.9,2-2,2S164,280.1,164,279z"/>
	<circle fill="#FFD200" cx="154" cy="276" r="5"/>
</g>
<g>
	<rect x="52" y="261" fill="#FFFFFF" width="56" height="40"/>
	<rect x="52" y="281" fill="#FF0000" width="56" height="20"/>
	<rect x="52" y="261" fill="#001468" width="20" height="20"/>
	<circle fill="#FFFFFF" cx="62" cy="271" r="4"/>
</g>
<g>
	<rect x="682" y="191" fill="#FFD200" width="56" height="40"/>
	<rect x="682" y="191" fill="#3B6AC3" width="18" height="40"/>
	<rect x="720" y="191" fill="#FF0000" width="18" height="40"/>
</g>
<g>
	<rect x="592" y="191" fill="#FFFFFF" width="56" height="40"/>
	<rect x="592" y="191" fill="#FF0000" width="16" height="40"/>
	<rect x="632" y="191" fill="#FF0000" width="16" height="40"/>
	<path fill="#FF0000" d="M615,219v-2l-4-3v-5h4h1v-4l4.1-3l3.9,3v4h1h4v5l-4,3v2H615z"/>
</g>
<g>
	<rect x="502" y="191" fill="#FF0000" width="56" height="40"/>
	<rect x="502" y="191" fill="#39953E" width="18" height="40"/>
	<rect x="540" y="191" fill="#FFD200" width="18" height="40"/>
	<circle fill="#FFD200" cx="530" cy="211" r="3"/>
</g>
<g>
	<rect x="412" y="191" fill="#39953E" width="56" height="40"/>
	<rect x="412" y="191" fill="#FF0000" width="56" height="20"/>
	<circle fill="#FFD200" cx="440" cy="211" r="3"/>
</g>
<g>
	<rect x="322" y="191" fill="#39953E" width="56" height="40"/>
	<rect x="322" y="218" fill="#FF0000" width="56" height="13"/>
	<rect x="322" y="191" fill="#FFFFFF" width="56" height="13"/>
</g>
<g>
	<rect x="232" y="191" fill="#001468" width="56" height="40"/>
	<path fill="#FFFFFF" d="M288,231h-6l-16-13v13h-12v-13l-16,13h-6v-4l12-10h-12v-12h12l-12-10v-4h6l16,13v-13h12v13l16-13h6v4
		l-12,10h12v12h-12l12,10V231z"/>
	<path fill="#FF0000" d="M285,231l-17-14h5l15,13v1H285z M264,231h-8v-16h-24v-8h24v-16h8v16h24v8h-24V231z M268,205l17-14h3v1
		l-15,13H268z M232,192v-1h3l17,14h-5L232,192z M252,217l-17,14h-3v-1l15-13H252z"/>
</g>
<g>
	<rect x="142" y="191" fill="#39953E" width="56" height="40"/>
	<path fill="#FFD200" d="M170,195l20,16l-20,16l-20-16L170,195z"/>
	<circle fill="#3B6AC3" cx="170" cy="211" r="9"/>
</g>
<g>
	<rect x="52" y="191" fill="#FFD200" width="56" height="40"/>
	<rect x="52" y="218" fill="#39953E" width="56" height="13"/>
	<rect x="52" y="191" fill="#FF0000" width="56" height="13"/>
	<circle fill="#FF0000" cx="80" cy="211" r="5"/>
</g>
<g>
	<rect x="682" y="121" fill="#FFD200" width="56" height="40"/>
	<rect x="682" y="141" fill="#FF0000" width="56" height="20"/>
	<rect x="682" y="121" fill="#39953E" width="18" height="40"/>
</g>
<g>
	<rect x="592" y="121" fill="#FFD200" width="56" height="40"/>
	<rect x="592" y="121" fill="#3E3E3E" width="18" height="40"/>
	<rect x="630" y="121" fill="#FF0000" width="18" height="40"/>
</g>
<g>
	<rect x="502" y="121" fill="#39953E" width="56" height="40"/>
	<circle fill="#FF0000" cx="526" cy="141" r="12"/>
</g>
<g>
	<rect x="412" y="121" fill="#FFFFFF" width="56" height="40"/>
	<path fill="#FF0000" d="M428,121h40v40h-40l4-4l-4-4l4-4l-4-4l4-3.9l-4-4.1l4-4l-4-4l4-4L428,121z"/>
</g>
<g>
	<rect x="322" y="121" fill="#FFD200" width="56" height="40"/>
	<rect x="322" y="148" fill="#3B6AC3" width="56" height="13"/>
	<rect x="322" y="121" fill="#3B6AC3" width="56" height="13"/>
	<path fill="#3E3E3E" d="M322,121l24,20l-24,20V121z"/>
</g>
<g>
	<rect x="232" y="121" fill="#FF0000" width="56" height="40"/>
	<rect x="232" y="148" fill="#39953E" width="56" height="13"/>
	<rect x="232" y="121" fill="#3B6AC3" width="56" height="13"/>
	<circle fill="#FFFFFF" cx="260" cy="141" r="5"/>
</g>
<g>
	<rect x="142" y="121" fill="#FFFFFF" width="56" height="40"/>
	<rect x="142" y="148" fill="#FF0000" width="56" height="13"/>
	<rect x="142" y="121" fill="#FF0000" width="56" height="13"/>
</g>
<g>
	<rect x="52" y="121" fill="#001468" width="56" height="40"/>
	<path fill="#FFFFFF" d="M80,141h-3l-8-6.4v6.4h-6v-6.4l-8,6.4h-3v-3l5.2-4H52v-6h5.2l-5.2-4v-3h3l8,6.4V121h6v6.4l8-6.4h3v3l-5.2,4
		H80v6h-5.2l5.2,4V141z"/>
	<path fill="#FF0000" d="M80,141h-1l-10-8h-1v8h-4v-8h-1l-10,8h-1v-1l8.5-7H52v-4h8.5l-8.5-7v-1h1l10,8h1v-8h4v8h1l10-8h1v1l-8.5,7
		H80v4h-8.5l8.5,7V141z"/>
	<path fill="#FFFFFF" d="M101,141c-1.1,0-2-0.9-2-2s0.9-2,2-2s2,0.9,2,2S102.1,141,101,141z M95,134c-1.1,0-2-0.9-2-2s0.9-2,2-2
		s2,0.9,2,2S96.1,134,95,134z M95,152c0,1.1-0.9,2-2,2c-1.1,0-2-0.9-2-2s0.9-2,2-2C94.1,150,95,150.9,95,152z M88,141
		c-1.1,0-2-0.9-2-2s0.9-2,2-2s2,0.9,2,2S89.1,141,88,141z M66,154c-1.7,0-3-1.3-3-3s1.3-3,3-3s3,1.3,3,3S67.7,154,66,154z"/>
</g>
<g>
	<rect x="682" y="51" fill="#001468" width="56" height="40"/>
	<rect x="682" y="78" fill="#FF9C00" width="56" height="13"/>
	<rect x="682" y="51" fill="#FF0000" width="56" height="13"/>
</g>
<g>
	<rect x="592" y="51" fill="#FFFFFF" width="56" height="40"/>
	<rect x="592" y="78" fill="#7EC8EB" width="56" height="13"/>
	<rect x="592" y="51" fill="#7EC8EB" width="56" height="13"/>
	<circle fill="#FFD200" cx="620" cy="71" r="5"/>
</g>
<g>
	<rect x="502" y="51" fill="#3E3E3E" width="56" height="40"/>
	<circle fill="#FFD200" cx="530" cy="69" r="9"/>
	<rect x="502" y="75" fill="#FFFFFF" width="56" height="16"/>
	<rect x="502" y="67" fill="#3B6AC3" width="56" height="8"/>
	<path fill="#FF0000" d="M502,51l28,40h-28V51z"/>
	<path fill="#FF0000" d="M558,51l-28,40h28V51z"/>
</g>
<g>
	<rect x="412" y="51" fill="#FFD200" width="56" height="40"/>
	<rect x="412" y="51" fill="#001468" width="18" height="40"/>
	<rect x="450" y="51" fill="#FF0000" width="18" height="40"/>
	<path fill="#FF9C00" d="M440,80c-3.9,0-7-3.1-7-7v-9c0,0,3.4-1,6.9-1c3.5,0,7.1,1,7.1,1v9C447,76.9,443.9,80,440,80z"/>
</g>
<g>
	<rect x="322" y="51" fill="#FFFFFF" width="56" height="40"/>
	<path fill="#FF0000" d="M322,91v-8h56v8H322z M322,67h56v8h-56V67z M322,51h56v8h-56V51z"/>
	<rect x="322" y="51" fill="#001468" width="24" height="24"/>
	<path fill="#FFFFFF" d="M341,65c-1.1,0-2-0.9-2-2c0-1.1,0.9-2,2-2s2,0.9,2,2C343,64.1,342.1,65,341,65z M341,58c-1.1,0-2-0.9-2-2
		s0.9-2,2-2s2,0.9,2,2S342.1,58,341,58z M334,72c-1.1,0-2-0.9-2-2s0.9-2,2-2s2,0.9,2,2S335.1,72,334,72z M334,65c-1.1,0-2-0.9-2-2
		c0-1.1,0.9-2,2-2s2,0.9,2,2C336,64.1,335.1,65,334,65z M334,58c-1.1,0-2-0.9-2-2s0.9-2,2-2s2,0.9,2,2S335.1,58,334,58z M327,72
		c-1.1,0-2-0.9-2-2s0.9-2,2-2s2,0.9,2,2S328.1,72,327,72z M327,65c-1.1,0-2-0.9-2-2c0-1.1,0.9-2,2-2s2,0.9,2,2
		C329,64.1,328.1,65,327,65z M327,58c-1.1,0-2-0.9-2-2s0.9-2,2-2s2,0.9,2,2S328.1,58,327,58z M341,68c1.1,0,2,0.9,2,2s-0.9,2-2,2
		s-2-0.9-2-2S339.9,68,341,68z"/>
</g>
<g>
	<rect x="232" y="51" fill="#FFFFFF" width="56" height="40"/>
	<rect x="232" y="51" fill="#39953E" width="28" height="40"/>
	<path fill="#FF0000" d="M263,61c-5.5,0-10,4.5-10,10s4.5,10,10,10c2.2,0,4.2-0.7,5.8-1.9c-2.2,2.4-5.3,3.9-8.8,3.9
		c-6.6,0-12-5.4-12-12s5.4-12,12-12c3.5,0,6.6,1.5,8.8,3.9C267.2,61.7,265.2,61,263,61z"/>
	<circle fill="#FF0000" cx="267" cy="71" r="4"/>
</g>
<g>
	<rect x="142" y="51" fill="#FF0000" width="56" height="40"/>
	<path fill="#3E3E3E" d="M170,85l-4-6l3-4l-5,4l-4,1l-2-9V60h2l8,5l-5-5l3-1h2l2,4l2-4h2l3,1l-5,5l8-5h2v11l-2,9l-4-1l-5-4l3,4
		L170,85z"/>
</g>
<g>
	<rect x="52" y="51" fill="#FF0000" width="56" height="40"/>
	<rect x="52" y="51" fill="#3E3E3E" width="18" height="40"/>
	<rect x="90" y="51" fill="#39953E" width="18" height="40"/>
	<path fill="#FFFFFF" d="M80,79c-4.4,0-8-3.6-8-8s3.6-8,8-8s8,3.6,8,8S84.4,79,80,79z M80,65.7c-2.9,0-5.3,2.4-5.3,5.3
		c0,2.9,2.4,5.3,5.3,5.3s5.3-2.4,5.3-5.3C85.3,68.1,82.9,65.7,80,65.7z"/>
</g>
</svg>
